<svg id="products" xmlns="http://www.w3.org/2000/svg" width="24" height="24" viewBox="0 0 24 24">
  <g id="Group_329" data-name="Group 329">
    <path id="Path_109" data-name="Path 109" d="M16.268,2.732a2.5,2.5,0,1,1-3.536,0,2.5,2.5,0,0,1,3.536,0" fill="none" stroke="#323232" stroke-linecap="round" stroke-linejoin="round" stroke-width="1.5"/>
    <path id="Path_110" data-name="Path 110" d="M8.828,7.172a4,4,0,1,1-5.657,0,4,4,0,0,1,5.657,0" fill="none" stroke="#323232" stroke-linecap="round" stroke-linejoin="round" stroke-width="1.5"/>
    <path id="Path_111" data-name="Path 111" d="M10,10H2" fill="none" stroke="#323232" stroke-linecap="round" stroke-linejoin="round" stroke-width="1.5"/>
    <path id="Path_112" data-name="Path 112" d="M21.115,15.155l-4.96,4.96a3.02,3.02,0,0,1-4.272,0h0a3.02,3.02,0,0,1,0-4.272l4.96-4.96a3.02,3.02,0,0,1,4.272,0h0a3.02,3.02,0,0,1,0,4.272Z" fill="none" stroke="#323232" stroke-linecap="round" stroke-linejoin="round" stroke-width="1.5"/>
    <path id="Path_113" data-name="Path 113" d="M14.38,13.38l4.24,4.24" fill="none" stroke="#323232" stroke-linecap="round" stroke-linejoin="round" stroke-width="1.5"/>
  </g>
  <path id="Path_114" data-name="Path 114" d="M0,0H24V24H0Z" fill="none"/>
</svg>
