<?xml version="1.0" encoding="utf-8"?>
<!-- Generator: Adobe Illustrator 24.0.2, SVG Export Plug-In . SVG Version: 6.00 Build 0)  -->
<svg version="1.1" id="Layer_3" xmlns="http://www.w3.org/2000/svg" xmlns:xlink="http://www.w3.org/1999/xlink" x="0px" y="0px"
	 width="24px" height="24px" viewBox="0 0 24 24" enable-background="new 0 0 24 24" xml:space="preserve">
<g>
	<g>
		<path fill="none" stroke="#323232" stroke-width="1.5" stroke-linecap="round" stroke-linejoin="round" d="M14.122,9.88
			c1.171,1.171,1.171,3.072,0,4.245c-1.171,1.171-3.072,1.171-4.245,0c-1.171-1.171-1.171-3.072,0-4.245
			C11.05,8.707,12.95,8.707,14.122,9.88"/>
		<path fill="none" stroke="#323232" stroke-width="1.5" stroke-linecap="round" stroke-linejoin="round" d="M3,12
			c0-0.659,0.152-1.311,0.446-1.912l0,0C4.961,6.991,8.309,5,12,5c3.691,0,7.039,1.991,8.554,5.088l0,0
			C20.848,10.689,21,11.341,21,12c0,0.659-0.152,1.311-0.446,1.912l0,0C19.039,17.009,15.691,19,12,19
			c-3.691,0-7.039-1.991-8.554-5.088l0,0C3.152,13.311,3,12.659,3,12z"/>
	</g>
	<path fill="none" d="M0,0h24v24H0V0z"/>
</g>
</svg>
